<mxfile host="app.diagrams.net" modified="2022-09-18T14:19:19.074Z" agent="5.0 (Windows NT 10.0; Win64; x64) AppleWebKit/537.36 (KHTML, like Gecko) Chrome/104.0.0.0 Safari/537.36" etag="C5Iu_uytTjeuZ7oMPHv4" version="20.3.2" type="github">
  <diagram name="Page-1" id="e7e014a7-5840-1c2e-5031-d8a46d1fe8dd">
    <mxGraphModel dx="3056" dy="1864" grid="1" gridSize="10" guides="1" tooltips="1" connect="1" arrows="1" fold="1" page="1" pageScale="1" pageWidth="1169" pageHeight="826" background="none" math="0" shadow="0">
      <root>
        <mxCell id="0" />
        <mxCell id="1" parent="0" />
        <mxCell id="wzmKpSG8mbK1vUIB95Jp-41" value="BaseGateway" style="swimlane;fontStyle=0;childLayout=stackLayout;horizontal=1;startSize=26;fillColor=none;horizontalStack=0;resizeParent=1;resizeParentMax=0;resizeLast=0;collapsible=1;marginBottom=0;" parent="1" vertex="1">
          <mxGeometry x="710" y="210" width="200" height="104" as="geometry" />
        </mxCell>
        <mxCell id="wzmKpSG8mbK1vUIB95Jp-42" value="+event_engine: EventEngine" style="text;strokeColor=none;fillColor=none;align=left;verticalAlign=top;spacingLeft=4;spacingRight=4;overflow=hidden;rotatable=0;points=[[0,0.5],[1,0.5]];portConstraint=eastwest;" parent="wzmKpSG8mbK1vUIB95Jp-41" vertex="1">
          <mxGeometry y="26" width="200" height="26" as="geometry" />
        </mxCell>
        <mxCell id="wzmKpSG8mbK1vUIB95Jp-43" value="+gateway_name: str" style="text;strokeColor=none;fillColor=none;align=left;verticalAlign=top;spacingLeft=4;spacingRight=4;overflow=hidden;rotatable=0;points=[[0,0.5],[1,0.5]];portConstraint=eastwest;" parent="wzmKpSG8mbK1vUIB95Jp-41" vertex="1">
          <mxGeometry y="52" width="200" height="26" as="geometry" />
        </mxCell>
        <mxCell id="wzmKpSG8mbK1vUIB95Jp-44" value="+ field: type" style="text;strokeColor=none;fillColor=none;align=left;verticalAlign=top;spacingLeft=4;spacingRight=4;overflow=hidden;rotatable=0;points=[[0,0.5],[1,0.5]];portConstraint=eastwest;" parent="wzmKpSG8mbK1vUIB95Jp-41" vertex="1">
          <mxGeometry y="78" width="200" height="26" as="geometry" />
        </mxCell>
        <mxCell id="wzmKpSG8mbK1vUIB95Jp-78" value="" style="edgeStyle=orthogonalEdgeStyle;rounded=0;orthogonalLoop=1;jettySize=auto;html=1;entryX=0.533;entryY=1.023;entryDx=0;entryDy=0;entryPerimeter=0;exitX=1;exitY=0.5;exitDx=0;exitDy=0;" parent="1" source="wzmKpSG8mbK1vUIB95Jp-47" target="wzmKpSG8mbK1vUIB95Jp-71" edge="1">
          <mxGeometry relative="1" as="geometry">
            <mxPoint x="1170" y="470" as="targetPoint" />
          </mxGeometry>
        </mxCell>
        <mxCell id="wzmKpSG8mbK1vUIB95Jp-45" value="CtpGateway" style="swimlane;fontStyle=0;childLayout=stackLayout;horizontal=1;startSize=26;fillColor=none;horizontalStack=0;resizeParent=1;resizeParentMax=0;resizeLast=0;collapsible=1;marginBottom=0;" parent="1" vertex="1">
          <mxGeometry x="710" y="480" width="200" height="78" as="geometry" />
        </mxCell>
        <mxCell id="wzmKpSG8mbK1vUIB95Jp-46" value="+td_api: CtpTdApi" style="text;strokeColor=none;fillColor=none;align=left;verticalAlign=top;spacingLeft=4;spacingRight=4;overflow=hidden;rotatable=0;points=[[0,0.5],[1,0.5]];portConstraint=eastwest;" parent="wzmKpSG8mbK1vUIB95Jp-45" vertex="1">
          <mxGeometry y="26" width="200" height="26" as="geometry" />
        </mxCell>
        <mxCell id="wzmKpSG8mbK1vUIB95Jp-47" value="+md_api: CtpMdApi" style="text;strokeColor=none;fillColor=none;align=left;verticalAlign=top;spacingLeft=4;spacingRight=4;overflow=hidden;rotatable=0;points=[[0,0.5],[1,0.5]];portConstraint=eastwest;" parent="wzmKpSG8mbK1vUIB95Jp-45" vertex="1">
          <mxGeometry y="52" width="200" height="26" as="geometry" />
        </mxCell>
        <mxCell id="wzmKpSG8mbK1vUIB95Jp-49" value="Extends" style="endArrow=block;endSize=16;endFill=0;html=1;rounded=0;exitX=0.5;exitY=0;exitDx=0;exitDy=0;entryX=0.492;entryY=1.162;entryDx=0;entryDy=0;entryPerimeter=0;" parent="1" source="wzmKpSG8mbK1vUIB95Jp-45" target="wzmKpSG8mbK1vUIB95Jp-44" edge="1">
          <mxGeometry width="160" relative="1" as="geometry">
            <mxPoint x="1080" y="441.5" as="sourcePoint" />
            <mxPoint x="990" y="350" as="targetPoint" />
          </mxGeometry>
        </mxCell>
        <mxCell id="wzmKpSG8mbK1vUIB95Jp-62" value="CtpTdApi" style="swimlane;fontStyle=0;childLayout=stackLayout;horizontal=1;startSize=26;fillColor=none;horizontalStack=0;resizeParent=1;resizeParentMax=0;resizeLast=0;collapsible=1;marginBottom=0;" parent="1" vertex="1">
          <mxGeometry x="950" y="210" width="160" height="260" as="geometry" />
        </mxCell>
        <mxCell id="wzmKpSG8mbK1vUIB95Jp-63" value="+gateway: CtpGateway" style="text;strokeColor=none;fillColor=none;align=left;verticalAlign=top;spacingLeft=4;spacingRight=4;overflow=hidden;rotatable=0;points=[[0,0.5],[1,0.5]];portConstraint=eastwest;" parent="wzmKpSG8mbK1vUIB95Jp-62" vertex="1">
          <mxGeometry y="26" width="160" height="26" as="geometry" />
        </mxCell>
        <mxCell id="wzmKpSG8mbK1vUIB95Jp-64" value="+gateway_name: str" style="text;strokeColor=none;fillColor=none;align=left;verticalAlign=top;spacingLeft=4;spacingRight=4;overflow=hidden;rotatable=0;points=[[0,0.5],[1,0.5]];portConstraint=eastwest;" parent="wzmKpSG8mbK1vUIB95Jp-62" vertex="1">
          <mxGeometry y="52" width="160" height="26" as="geometry" />
        </mxCell>
        <mxCell id="wzmKpSG8mbK1vUIB95Jp-65" value="+connect_status: bool" style="text;strokeColor=none;fillColor=none;align=left;verticalAlign=top;spacingLeft=4;spacingRight=4;overflow=hidden;rotatable=0;points=[[0,0.5],[1,0.5]];portConstraint=eastwest;" parent="wzmKpSG8mbK1vUIB95Jp-62" vertex="1">
          <mxGeometry y="78" width="160" height="26" as="geometry" />
        </mxCell>
        <mxCell id="wzmKpSG8mbK1vUIB95Jp-66" value="+login_status: bool" style="text;strokeColor=none;fillColor=none;align=left;verticalAlign=top;spacingLeft=4;spacingRight=4;overflow=hidden;rotatable=0;points=[[0,0.5],[1,0.5]];portConstraint=eastwest;" parent="wzmKpSG8mbK1vUIB95Jp-62" vertex="1">
          <mxGeometry y="104" width="160" height="26" as="geometry" />
        </mxCell>
        <mxCell id="wzmKpSG8mbK1vUIB95Jp-67" value="+subscribed: set" style="text;strokeColor=none;fillColor=none;align=left;verticalAlign=top;spacingLeft=4;spacingRight=4;overflow=hidden;rotatable=0;points=[[0,0.5],[1,0.5]];portConstraint=eastwest;" parent="wzmKpSG8mbK1vUIB95Jp-62" vertex="1">
          <mxGeometry y="130" width="160" height="26" as="geometry" />
        </mxCell>
        <mxCell id="wzmKpSG8mbK1vUIB95Jp-68" value="+userid: str" style="text;strokeColor=none;fillColor=none;align=left;verticalAlign=top;spacingLeft=4;spacingRight=4;overflow=hidden;rotatable=0;points=[[0,0.5],[1,0.5]];portConstraint=eastwest;" parent="wzmKpSG8mbK1vUIB95Jp-62" vertex="1">
          <mxGeometry y="156" width="160" height="26" as="geometry" />
        </mxCell>
        <mxCell id="wzmKpSG8mbK1vUIB95Jp-69" value="+password: str" style="text;strokeColor=none;fillColor=none;align=left;verticalAlign=top;spacingLeft=4;spacingRight=4;overflow=hidden;rotatable=0;points=[[0,0.5],[1,0.5]];portConstraint=eastwest;" parent="wzmKpSG8mbK1vUIB95Jp-62" vertex="1">
          <mxGeometry y="182" width="160" height="26" as="geometry" />
        </mxCell>
        <mxCell id="wzmKpSG8mbK1vUIB95Jp-70" value="+brokerid: str" style="text;strokeColor=none;fillColor=none;align=left;verticalAlign=top;spacingLeft=4;spacingRight=4;overflow=hidden;rotatable=0;points=[[0,0.5],[1,0.5]];portConstraint=eastwest;" parent="wzmKpSG8mbK1vUIB95Jp-62" vertex="1">
          <mxGeometry y="208" width="160" height="26" as="geometry" />
        </mxCell>
        <mxCell id="wzmKpSG8mbK1vUIB95Jp-71" value="+current_date: str" style="text;strokeColor=none;fillColor=none;align=left;verticalAlign=top;spacingLeft=4;spacingRight=4;overflow=hidden;rotatable=0;points=[[0,0.5],[1,0.5]];portConstraint=eastwest;" parent="wzmKpSG8mbK1vUIB95Jp-62" vertex="1">
          <mxGeometry y="234" width="160" height="26" as="geometry" />
        </mxCell>
        <mxCell id="wzmKpSG8mbK1vUIB95Jp-50" value="CtpMdApi" style="swimlane;fontStyle=0;childLayout=stackLayout;horizontal=1;startSize=26;fillColor=none;horizontalStack=0;resizeParent=1;resizeParentMax=0;resizeLast=0;collapsible=1;marginBottom=0;" parent="1" vertex="1">
          <mxGeometry x="510" y="210" width="160" height="260" as="geometry" />
        </mxCell>
        <mxCell id="wzmKpSG8mbK1vUIB95Jp-51" value="+gateway: CtpGateway" style="text;strokeColor=none;fillColor=none;align=left;verticalAlign=top;spacingLeft=4;spacingRight=4;overflow=hidden;rotatable=0;points=[[0,0.5],[1,0.5]];portConstraint=eastwest;" parent="wzmKpSG8mbK1vUIB95Jp-50" vertex="1">
          <mxGeometry y="26" width="160" height="26" as="geometry" />
        </mxCell>
        <mxCell id="wzmKpSG8mbK1vUIB95Jp-52" value="+gateway_name: str" style="text;strokeColor=none;fillColor=none;align=left;verticalAlign=top;spacingLeft=4;spacingRight=4;overflow=hidden;rotatable=0;points=[[0,0.5],[1,0.5]];portConstraint=eastwest;" parent="wzmKpSG8mbK1vUIB95Jp-50" vertex="1">
          <mxGeometry y="52" width="160" height="26" as="geometry" />
        </mxCell>
        <mxCell id="wzmKpSG8mbK1vUIB95Jp-53" value="+connect_status: bool" style="text;strokeColor=none;fillColor=none;align=left;verticalAlign=top;spacingLeft=4;spacingRight=4;overflow=hidden;rotatable=0;points=[[0,0.5],[1,0.5]];portConstraint=eastwest;" parent="wzmKpSG8mbK1vUIB95Jp-50" vertex="1">
          <mxGeometry y="78" width="160" height="26" as="geometry" />
        </mxCell>
        <mxCell id="wzmKpSG8mbK1vUIB95Jp-55" value="+login_status: bool" style="text;strokeColor=none;fillColor=none;align=left;verticalAlign=top;spacingLeft=4;spacingRight=4;overflow=hidden;rotatable=0;points=[[0,0.5],[1,0.5]];portConstraint=eastwest;" parent="wzmKpSG8mbK1vUIB95Jp-50" vertex="1">
          <mxGeometry y="104" width="160" height="26" as="geometry" />
        </mxCell>
        <mxCell id="wzmKpSG8mbK1vUIB95Jp-56" value="+subscribed: set" style="text;strokeColor=none;fillColor=none;align=left;verticalAlign=top;spacingLeft=4;spacingRight=4;overflow=hidden;rotatable=0;points=[[0,0.5],[1,0.5]];portConstraint=eastwest;" parent="wzmKpSG8mbK1vUIB95Jp-50" vertex="1">
          <mxGeometry y="130" width="160" height="26" as="geometry" />
        </mxCell>
        <mxCell id="wzmKpSG8mbK1vUIB95Jp-57" value="+userid: str" style="text;strokeColor=none;fillColor=none;align=left;verticalAlign=top;spacingLeft=4;spacingRight=4;overflow=hidden;rotatable=0;points=[[0,0.5],[1,0.5]];portConstraint=eastwest;" parent="wzmKpSG8mbK1vUIB95Jp-50" vertex="1">
          <mxGeometry y="156" width="160" height="26" as="geometry" />
        </mxCell>
        <mxCell id="wzmKpSG8mbK1vUIB95Jp-58" value="+password: str" style="text;strokeColor=none;fillColor=none;align=left;verticalAlign=top;spacingLeft=4;spacingRight=4;overflow=hidden;rotatable=0;points=[[0,0.5],[1,0.5]];portConstraint=eastwest;" parent="wzmKpSG8mbK1vUIB95Jp-50" vertex="1">
          <mxGeometry y="182" width="160" height="26" as="geometry" />
        </mxCell>
        <mxCell id="wzmKpSG8mbK1vUIB95Jp-59" value="+brokerid: str" style="text;strokeColor=none;fillColor=none;align=left;verticalAlign=top;spacingLeft=4;spacingRight=4;overflow=hidden;rotatable=0;points=[[0,0.5],[1,0.5]];portConstraint=eastwest;" parent="wzmKpSG8mbK1vUIB95Jp-50" vertex="1">
          <mxGeometry y="208" width="160" height="26" as="geometry" />
        </mxCell>
        <mxCell id="wzmKpSG8mbK1vUIB95Jp-60" value="+current_date: str" style="text;strokeColor=none;fillColor=none;align=left;verticalAlign=top;spacingLeft=4;spacingRight=4;overflow=hidden;rotatable=0;points=[[0,0.5],[1,0.5]];portConstraint=eastwest;" parent="wzmKpSG8mbK1vUIB95Jp-50" vertex="1">
          <mxGeometry y="234" width="160" height="26" as="geometry" />
        </mxCell>
        <mxCell id="wzmKpSG8mbK1vUIB95Jp-80" value="" style="edgeStyle=orthogonalEdgeStyle;rounded=0;orthogonalLoop=1;jettySize=auto;html=1;exitX=0;exitY=0.5;exitDx=0;exitDy=0;entryX=0.5;entryY=1;entryDx=0;entryDy=0;entryPerimeter=0;" parent="1" source="wzmKpSG8mbK1vUIB95Jp-47" target="wzmKpSG8mbK1vUIB95Jp-60" edge="1">
          <mxGeometry relative="1" as="geometry">
            <mxPoint x="520" y="604.4" as="sourcePoint" />
            <mxPoint x="600" y="510" as="targetPoint" />
          </mxGeometry>
        </mxCell>
        <mxCell id="wzmKpSG8mbK1vUIB95Jp-89" value=":&lt;span style=&quot;&quot;&gt;CtpMdApi&lt;/span&gt;" style="shape=umlLifeline;perimeter=lifelinePerimeter;whiteSpace=wrap;html=1;container=1;collapsible=0;recursiveResize=0;outlineConnect=0;" parent="1" vertex="1">
          <mxGeometry x="-700" y="-680" width="100" height="520" as="geometry" />
        </mxCell>
        <mxCell id="wzmKpSG8mbK1vUIB95Jp-86" value="" style="html=1;points=[];perimeter=orthogonalPerimeter;" parent="wzmKpSG8mbK1vUIB95Jp-89" vertex="1">
          <mxGeometry x="45" y="320" width="10" height="20" as="geometry" />
        </mxCell>
        <mxCell id="dhznvwG4GQQHrfqgh1_B-12" value=":CTP柜台" style="shape=umlLifeline;perimeter=lifelinePerimeter;whiteSpace=wrap;html=1;container=1;collapsible=0;recursiveResize=0;outlineConnect=0;" vertex="1" parent="1">
          <mxGeometry x="-860" y="-680" width="100" height="300" as="geometry" />
        </mxCell>
        <mxCell id="dhznvwG4GQQHrfqgh1_B-16" value="" style="html=1;points=[];perimeter=orthogonalPerimeter;" vertex="1" parent="dhznvwG4GQQHrfqgh1_B-12">
          <mxGeometry x="45" y="80" width="10" height="40" as="geometry" />
        </mxCell>
        <mxCell id="dhznvwG4GQQHrfqgh1_B-19" value="" style="html=1;points=[];perimeter=orthogonalPerimeter;" vertex="1" parent="dhznvwG4GQQHrfqgh1_B-12">
          <mxGeometry x="45" y="160" width="10" height="40" as="geometry" />
        </mxCell>
        <mxCell id="dhznvwG4GQQHrfqgh1_B-14" value=":&lt;span style=&quot;&quot;&gt;MdApi&lt;/span&gt;" style="shape=umlLifeline;perimeter=lifelinePerimeter;whiteSpace=wrap;html=1;container=1;collapsible=0;recursiveResize=0;outlineConnect=0;" vertex="1" parent="1">
          <mxGeometry x="-1020" y="-680" width="100" height="460" as="geometry" />
        </mxCell>
        <mxCell id="dhznvwG4GQQHrfqgh1_B-13" value="" style="html=1;points=[];perimeter=orthogonalPerimeter;" vertex="1" parent="dhznvwG4GQQHrfqgh1_B-14">
          <mxGeometry x="45" y="80" width="10" height="40" as="geometry" />
        </mxCell>
        <mxCell id="dhznvwG4GQQHrfqgh1_B-20" value="" style="html=1;points=[];perimeter=orthogonalPerimeter;" vertex="1" parent="dhznvwG4GQQHrfqgh1_B-14">
          <mxGeometry x="45" y="160" width="10" height="40" as="geometry" />
        </mxCell>
        <mxCell id="dhznvwG4GQQHrfqgh1_B-17" value="connect" style="html=1;verticalAlign=bottom;endArrow=block;entryX=0;entryY=0;rounded=0;" edge="1" parent="1" target="dhznvwG4GQQHrfqgh1_B-16" source="dhznvwG4GQQHrfqgh1_B-14">
          <mxGeometry relative="1" as="geometry">
            <mxPoint x="-820" y="-600" as="sourcePoint" />
          </mxGeometry>
        </mxCell>
        <mxCell id="dhznvwG4GQQHrfqgh1_B-18" value="return" style="html=1;verticalAlign=bottom;endArrow=open;dashed=1;endSize=8;exitX=-0.114;exitY=0.994;rounded=0;exitDx=0;exitDy=0;exitPerimeter=0;entryX=1.02;entryY=1.003;entryDx=0;entryDy=0;entryPerimeter=0;" edge="1" parent="1" source="dhznvwG4GQQHrfqgh1_B-16" target="dhznvwG4GQQHrfqgh1_B-13">
          <mxGeometry relative="1" as="geometry">
            <mxPoint x="-960" y="-520" as="targetPoint" />
            <Array as="points" />
          </mxGeometry>
        </mxCell>
        <mxCell id="dhznvwG4GQQHrfqgh1_B-21" value="subscribe" style="html=1;verticalAlign=bottom;endArrow=block;entryX=0;entryY=0;rounded=0;exitX=1.022;exitY=0;exitDx=0;exitDy=0;exitPerimeter=0;" edge="1" parent="1" target="dhznvwG4GQQHrfqgh1_B-19" source="dhznvwG4GQQHrfqgh1_B-20">
          <mxGeometry relative="1" as="geometry">
            <mxPoint x="-960" y="-544" as="sourcePoint" />
          </mxGeometry>
        </mxCell>
        <mxCell id="dhznvwG4GQQHrfqgh1_B-22" value="return" style="html=1;verticalAlign=bottom;endArrow=open;dashed=1;endSize=8;exitX=-0.114;exitY=0.994;rounded=0;exitDx=0;exitDy=0;exitPerimeter=0;entryX=1.02;entryY=1.003;entryDx=0;entryDy=0;entryPerimeter=0;" edge="1" parent="1" source="dhznvwG4GQQHrfqgh1_B-19" target="dhznvwG4GQQHrfqgh1_B-20">
          <mxGeometry relative="1" as="geometry">
            <mxPoint x="-950" y="-464" as="targetPoint" />
            <Array as="points" />
          </mxGeometry>
        </mxCell>
        <mxCell id="dhznvwG4GQQHrfqgh1_B-23" value="" style="html=1;points=[];perimeter=orthogonalPerimeter;" vertex="1" parent="1">
          <mxGeometry x="-815" y="-440" width="10" height="40" as="geometry" />
        </mxCell>
        <mxCell id="dhznvwG4GQQHrfqgh1_B-24" value="" style="html=1;points=[];perimeter=orthogonalPerimeter;" vertex="1" parent="1">
          <mxGeometry x="-975" y="-440" width="10" height="160" as="geometry" />
        </mxCell>
        <mxCell id="dhznvwG4GQQHrfqgh1_B-25" value="push" style="html=1;verticalAlign=bottom;endArrow=block;rounded=0;entryX=1.027;entryY=0.002;entryDx=0;entryDy=0;entryPerimeter=0;exitX=-0.021;exitY=-0.002;exitDx=0;exitDy=0;exitPerimeter=0;" edge="1" parent="1" source="dhznvwG4GQQHrfqgh1_B-23" target="dhznvwG4GQQHrfqgh1_B-24">
          <mxGeometry relative="1" as="geometry">
            <mxPoint x="-760" y="-440" as="sourcePoint" />
            <mxPoint x="-960" y="-440" as="targetPoint" />
            <Array as="points">
              <mxPoint x="-950" y="-440" />
            </Array>
          </mxGeometry>
        </mxCell>
        <mxCell id="dhznvwG4GQQHrfqgh1_B-27" value="OnRtnDepthMarketData" style="html=1;verticalAlign=bottom;endArrow=block;rounded=0;entryX=0.011;entryY=0.002;entryDx=0;entryDy=0;entryPerimeter=0;exitX=1.018;exitY=0.501;exitDx=0;exitDy=0;exitPerimeter=0;" edge="1" parent="1" source="dhznvwG4GQQHrfqgh1_B-24" target="wzmKpSG8mbK1vUIB95Jp-86">
          <mxGeometry relative="1" as="geometry">
            <mxPoint x="-940" y="-360" as="sourcePoint" />
            <mxPoint x="-474.75" y="-40" as="targetPoint" />
          </mxGeometry>
        </mxCell>
        <mxCell id="dhznvwG4GQQHrfqgh1_B-28" value=":&lt;span style=&quot;&quot;&gt;CtpGateway&lt;/span&gt;" style="shape=umlLifeline;perimeter=lifelinePerimeter;whiteSpace=wrap;html=1;container=1;collapsible=0;recursiveResize=0;outlineConnect=0;" vertex="1" parent="1">
          <mxGeometry x="-540" y="-680" width="100" height="520" as="geometry" />
        </mxCell>
        <mxCell id="dhznvwG4GQQHrfqgh1_B-29" value="" style="html=1;points=[];perimeter=orthogonalPerimeter;" vertex="1" parent="dhznvwG4GQQHrfqgh1_B-28">
          <mxGeometry x="45" y="340" width="10" height="20" as="geometry" />
        </mxCell>
        <mxCell id="dhznvwG4GQQHrfqgh1_B-30" value="on_tick" style="html=1;verticalAlign=bottom;endArrow=block;rounded=0;exitX=1.035;exitY=1.023;exitDx=0;exitDy=0;exitPerimeter=0;entryX=-0.016;entryY=0.003;entryDx=0;entryDy=0;entryPerimeter=0;" edge="1" parent="1" source="wzmKpSG8mbK1vUIB95Jp-86" target="dhznvwG4GQQHrfqgh1_B-29">
          <mxGeometry relative="1" as="geometry">
            <mxPoint x="-509.99999999999994" y="-289.9999999999999" as="sourcePoint" />
            <mxPoint x="-540" y="-340" as="targetPoint" />
          </mxGeometry>
        </mxCell>
        <mxCell id="dhznvwG4GQQHrfqgh1_B-31" value=":EventEngine" style="shape=umlLifeline;perimeter=lifelinePerimeter;whiteSpace=wrap;html=1;container=1;collapsible=0;recursiveResize=0;outlineConnect=0;" vertex="1" parent="1">
          <mxGeometry x="-380" y="-680" width="100" height="630" as="geometry" />
        </mxCell>
        <mxCell id="dhznvwG4GQQHrfqgh1_B-32" value="" style="html=1;points=[];perimeter=orthogonalPerimeter;" vertex="1" parent="dhznvwG4GQQHrfqgh1_B-31">
          <mxGeometry x="45" y="360" width="10" height="40" as="geometry" />
        </mxCell>
        <mxCell id="dhznvwG4GQQHrfqgh1_B-33" value="on_event" style="html=1;verticalAlign=bottom;endArrow=block;rounded=0;exitX=1.035;exitY=1.023;exitDx=0;exitDy=0;exitPerimeter=0;entryX=-0.016;entryY=0.003;entryDx=0;entryDy=0;entryPerimeter=0;" edge="1" parent="dhznvwG4GQQHrfqgh1_B-31">
          <mxGeometry relative="1" as="geometry">
            <mxPoint x="-104.4900000000001" y="360.40000000000003" as="sourcePoint" />
            <mxPoint x="45.00000000000014" y="359.99999999999994" as="targetPoint" />
          </mxGeometry>
        </mxCell>
        <mxCell id="dhznvwG4GQQHrfqgh1_B-4" value="" style="html=1;points=[];perimeter=orthogonalPerimeter;" vertex="1" parent="dhznvwG4GQQHrfqgh1_B-31">
          <mxGeometry x="45" y="420" width="10" height="40" as="geometry" />
        </mxCell>
        <mxCell id="dhznvwG4GQQHrfqgh1_B-5" value="put event to queue" style="edgeStyle=orthogonalEdgeStyle;html=1;align=left;spacingLeft=2;endArrow=block;rounded=0;entryX=1;entryY=0;" edge="1" target="dhznvwG4GQQHrfqgh1_B-4" parent="dhznvwG4GQQHrfqgh1_B-31">
          <mxGeometry relative="1" as="geometry">
            <mxPoint x="50" y="400" as="sourcePoint" />
            <Array as="points">
              <mxPoint x="80" y="400" />
            </Array>
          </mxGeometry>
        </mxCell>
        <mxCell id="dhznvwG4GQQHrfqgh1_B-43" value="" style="html=1;points=[];perimeter=orthogonalPerimeter;" vertex="1" parent="dhznvwG4GQQHrfqgh1_B-31">
          <mxGeometry x="45" y="80" width="10" height="40" as="geometry" />
        </mxCell>
        <mxCell id="dhznvwG4GQQHrfqgh1_B-46" value="" style="html=1;points=[];perimeter=orthogonalPerimeter;" vertex="1" parent="dhznvwG4GQQHrfqgh1_B-31">
          <mxGeometry x="45" y="160" width="10" height="40" as="geometry" />
        </mxCell>
        <mxCell id="dhznvwG4GQQHrfqgh1_B-48" value="get event from queue" style="edgeStyle=orthogonalEdgeStyle;html=1;align=left;spacingLeft=2;endArrow=block;rounded=0;entryX=1.021;entryY=1;entryDx=0;entryDy=0;entryPerimeter=0;" edge="1" parent="dhznvwG4GQQHrfqgh1_B-31" target="dhznvwG4GQQHrfqgh1_B-46">
          <mxGeometry relative="1" as="geometry">
            <mxPoint x="55" y="160" as="sourcePoint" />
            <Array as="points">
              <mxPoint x="85" y="160" />
              <mxPoint x="85" y="200" />
            </Array>
            <mxPoint x="60" y="180" as="targetPoint" />
          </mxGeometry>
        </mxCell>
        <mxCell id="dhznvwG4GQQHrfqgh1_B-49" value="" style="html=1;points=[];perimeter=orthogonalPerimeter;" vertex="1" parent="dhznvwG4GQQHrfqgh1_B-31">
          <mxGeometry x="45" y="478" width="10" height="60" as="geometry" />
        </mxCell>
        <mxCell id="dhznvwG4GQQHrfqgh1_B-34" value="行情数据推送&lt;br&gt;过滤数据" style="text;html=1;strokeColor=none;fillColor=none;align=center;verticalAlign=middle;whiteSpace=wrap;rounded=0;" vertex="1" parent="1">
          <mxGeometry x="-850" y="-350" width="80" height="30" as="geometry" />
        </mxCell>
        <mxCell id="dhznvwG4GQQHrfqgh1_B-35" value="合成tickData" style="text;html=1;strokeColor=none;fillColor=none;align=center;verticalAlign=middle;whiteSpace=wrap;rounded=0;" vertex="1" parent="1">
          <mxGeometry x="-610" y="-330" width="80" height="30" as="geometry" />
        </mxCell>
        <mxCell id="dhznvwG4GQQHrfqgh1_B-36" value="合成event" style="text;html=1;strokeColor=none;fillColor=none;align=center;verticalAlign=middle;whiteSpace=wrap;rounded=0;" vertex="1" parent="1">
          <mxGeometry x="-450" y="-320" width="80" height="30" as="geometry" />
        </mxCell>
        <mxCell id="dhznvwG4GQQHrfqgh1_B-37" value=":CtaEngine" style="shape=umlLifeline;perimeter=lifelinePerimeter;whiteSpace=wrap;html=1;container=1;collapsible=0;recursiveResize=0;outlineConnect=0;" vertex="1" parent="1">
          <mxGeometry x="-220" y="-680" width="100" height="650" as="geometry" />
        </mxCell>
        <mxCell id="dhznvwG4GQQHrfqgh1_B-42" value="" style="html=1;points=[];perimeter=orthogonalPerimeter;" vertex="1" parent="dhznvwG4GQQHrfqgh1_B-37">
          <mxGeometry x="45" y="80" width="10" height="40" as="geometry" />
        </mxCell>
        <mxCell id="dhznvwG4GQQHrfqgh1_B-50" value="process_tick_event" style="html=1;verticalAlign=bottom;endArrow=block;rounded=0;exitX=1.035;exitY=1.023;exitDx=0;exitDy=0;exitPerimeter=0;entryX=-0.016;entryY=0.003;entryDx=0;entryDy=0;entryPerimeter=0;" edge="1" parent="dhznvwG4GQQHrfqgh1_B-37">
          <mxGeometry relative="1" as="geometry">
            <mxPoint x="-104.49000000000001" y="478.4000000000002" as="sourcePoint" />
            <mxPoint x="45.00000000000023" y="478" as="targetPoint" />
          </mxGeometry>
        </mxCell>
        <mxCell id="dhznvwG4GQQHrfqgh1_B-51" value="" style="html=1;points=[];perimeter=orthogonalPerimeter;" vertex="1" parent="dhznvwG4GQQHrfqgh1_B-37">
          <mxGeometry x="45" y="478" width="10" height="60" as="geometry" />
        </mxCell>
        <mxCell id="dhznvwG4GQQHrfqgh1_B-44" value="register" style="html=1;verticalAlign=bottom;endArrow=block;rounded=0;exitX=-0.005;exitY=-0.001;exitDx=0;exitDy=0;exitPerimeter=0;entryX=1.017;entryY=0.006;entryDx=0;entryDy=0;entryPerimeter=0;" edge="1" parent="1" source="dhznvwG4GQQHrfqgh1_B-42" target="dhznvwG4GQQHrfqgh1_B-43">
          <mxGeometry relative="1" as="geometry">
            <mxPoint x="-171.49000000000024" y="-596.5999999999999" as="sourcePoint" />
            <mxPoint x="-347.92857142857156" y="-596.5999999999999" as="targetPoint" />
          </mxGeometry>
        </mxCell>
        <mxCell id="dhznvwG4GQQHrfqgh1_B-45" value="注册函数&lt;br&gt;process_tick_event" style="text;html=1;strokeColor=none;fillColor=none;align=center;verticalAlign=middle;whiteSpace=wrap;rounded=0;" vertex="1" parent="1">
          <mxGeometry x="-290" y="-600" width="90" height="30" as="geometry" />
        </mxCell>
        <mxCell id="dhznvwG4GQQHrfqgh1_B-52" value=":stragegy" style="shape=umlLifeline;perimeter=lifelinePerimeter;whiteSpace=wrap;html=1;container=1;collapsible=0;recursiveResize=0;outlineConnect=0;" vertex="1" parent="1">
          <mxGeometry x="-60" y="-680" width="100" height="640" as="geometry" />
        </mxCell>
        <mxCell id="dhznvwG4GQQHrfqgh1_B-53" value="" style="html=1;points=[];perimeter=orthogonalPerimeter;" vertex="1" parent="dhznvwG4GQQHrfqgh1_B-52">
          <mxGeometry x="45" y="490" width="10" height="70" as="geometry" />
        </mxCell>
        <mxCell id="dhznvwG4GQQHrfqgh1_B-55" value="on_tick" style="edgeStyle=orthogonalEdgeStyle;html=1;align=left;spacingLeft=2;endArrow=block;rounded=0;exitX=0.992;exitY=0;exitDx=0;exitDy=0;exitPerimeter=0;" edge="1" parent="dhznvwG4GQQHrfqgh1_B-52" source="dhznvwG4GQQHrfqgh1_B-53">
          <mxGeometry relative="1" as="geometry">
            <mxPoint x="60" y="490" as="sourcePoint" />
            <Array as="points">
              <mxPoint x="90" y="490" />
              <mxPoint x="90" y="520" />
              <mxPoint x="55" y="520" />
            </Array>
            <mxPoint x="55" y="520" as="targetPoint" />
          </mxGeometry>
        </mxCell>
        <mxCell id="dhznvwG4GQQHrfqgh1_B-54" value="call_strategy_func" style="html=1;verticalAlign=bottom;endArrow=block;rounded=0;exitX=1.035;exitY=1.023;exitDx=0;exitDy=0;exitPerimeter=0;entryX=-0.016;entryY=0.003;entryDx=0;entryDy=0;entryPerimeter=0;" edge="1" parent="1">
          <mxGeometry relative="1" as="geometry">
            <mxPoint x="-163.99999999999932" y="-189.5999999999999" as="sourcePoint" />
            <mxPoint x="-14.509999999999991" y="-190" as="targetPoint" />
          </mxGeometry>
        </mxCell>
        <mxCell id="dhznvwG4GQQHrfqgh1_B-56" value=":BarGenerator" style="shape=umlLifeline;perimeter=lifelinePerimeter;whiteSpace=wrap;html=1;container=1;collapsible=0;recursiveResize=0;outlineConnect=0;" vertex="1" parent="1">
          <mxGeometry x="100" y="-680" width="100" height="640" as="geometry" />
        </mxCell>
        <mxCell id="dhznvwG4GQQHrfqgh1_B-57" value="" style="html=1;points=[];perimeter=orthogonalPerimeter;" vertex="1" parent="dhznvwG4GQQHrfqgh1_B-56">
          <mxGeometry x="45" y="530" width="10" height="30" as="geometry" />
        </mxCell>
        <mxCell id="dhznvwG4GQQHrfqgh1_B-58" value="on_bar" style="edgeStyle=orthogonalEdgeStyle;html=1;align=left;spacingLeft=2;endArrow=block;rounded=0;entryX=0.992;entryY=1.001;entryDx=0;entryDy=0;entryPerimeter=0;exitX=0.992;exitY=0;exitDx=0;exitDy=0;exitPerimeter=0;" edge="1" parent="dhznvwG4GQQHrfqgh1_B-56" source="dhznvwG4GQQHrfqgh1_B-57" target="dhznvwG4GQQHrfqgh1_B-57">
          <mxGeometry relative="1" as="geometry">
            <mxPoint x="60" y="491" as="sourcePoint" />
            <Array as="points">
              <mxPoint x="90" y="530" />
              <mxPoint x="90" y="560" />
            </Array>
            <mxPoint x="60.210000000000036" y="531" as="targetPoint" />
          </mxGeometry>
        </mxCell>
        <mxCell id="dhznvwG4GQQHrfqgh1_B-59" value="update_tick" style="html=1;verticalAlign=bottom;endArrow=block;rounded=0;exitX=1.075;exitY=0.579;exitDx=0;exitDy=0;exitPerimeter=0;entryX=0.5;entryY=0;entryDx=0;entryDy=0;entryPerimeter=0;" edge="1" parent="1" source="dhznvwG4GQQHrfqgh1_B-53" target="dhznvwG4GQQHrfqgh1_B-57">
          <mxGeometry relative="1" as="geometry">
            <mxPoint x="6.821210263296962e-13" y="-149.5999999999999" as="sourcePoint" />
            <mxPoint x="140" y="-150" as="targetPoint" />
          </mxGeometry>
        </mxCell>
        <mxCell id="dhznvwG4GQQHrfqgh1_B-60" value=":&lt;span style=&quot;&quot;&gt;CtpMdApi&lt;/span&gt;" style="shape=umlLifeline;perimeter=lifelinePerimeter;whiteSpace=wrap;html=1;container=1;collapsible=0;recursiveResize=0;outlineConnect=0;" vertex="1" parent="1">
          <mxGeometry x="-700" y="50" width="100" height="520" as="geometry" />
        </mxCell>
        <mxCell id="dhznvwG4GQQHrfqgh1_B-61" value="" style="html=1;points=[];perimeter=orthogonalPerimeter;" vertex="1" parent="dhznvwG4GQQHrfqgh1_B-60">
          <mxGeometry x="45" y="320" width="10" height="20" as="geometry" />
        </mxCell>
        <mxCell id="dhznvwG4GQQHrfqgh1_B-62" value=":CTP柜台" style="shape=umlLifeline;perimeter=lifelinePerimeter;whiteSpace=wrap;html=1;container=1;collapsible=0;recursiveResize=0;outlineConnect=0;" vertex="1" parent="1">
          <mxGeometry x="-860" y="50" width="100" height="300" as="geometry" />
        </mxCell>
        <mxCell id="dhznvwG4GQQHrfqgh1_B-63" value="" style="html=1;points=[];perimeter=orthogonalPerimeter;" vertex="1" parent="dhznvwG4GQQHrfqgh1_B-62">
          <mxGeometry x="45" y="80" width="10" height="40" as="geometry" />
        </mxCell>
        <mxCell id="dhznvwG4GQQHrfqgh1_B-64" value="" style="html=1;points=[];perimeter=orthogonalPerimeter;" vertex="1" parent="dhznvwG4GQQHrfqgh1_B-62">
          <mxGeometry x="45" y="160" width="10" height="40" as="geometry" />
        </mxCell>
        <mxCell id="dhznvwG4GQQHrfqgh1_B-65" value=":T&lt;span style=&quot;&quot;&gt;dApi&lt;/span&gt;" style="shape=umlLifeline;perimeter=lifelinePerimeter;whiteSpace=wrap;html=1;container=1;collapsible=0;recursiveResize=0;outlineConnect=0;" vertex="1" parent="1">
          <mxGeometry x="-1020" y="50" width="100" height="460" as="geometry" />
        </mxCell>
        <mxCell id="dhznvwG4GQQHrfqgh1_B-66" value="" style="html=1;points=[];perimeter=orthogonalPerimeter;" vertex="1" parent="dhznvwG4GQQHrfqgh1_B-65">
          <mxGeometry x="45" y="80" width="10" height="40" as="geometry" />
        </mxCell>
        <mxCell id="dhznvwG4GQQHrfqgh1_B-67" value="" style="html=1;points=[];perimeter=orthogonalPerimeter;" vertex="1" parent="dhznvwG4GQQHrfqgh1_B-65">
          <mxGeometry x="45" y="160" width="10" height="40" as="geometry" />
        </mxCell>
        <mxCell id="dhznvwG4GQQHrfqgh1_B-68" value="connect" style="html=1;verticalAlign=bottom;endArrow=block;entryX=0;entryY=0;rounded=0;" edge="1" parent="1" source="dhznvwG4GQQHrfqgh1_B-65" target="dhznvwG4GQQHrfqgh1_B-63">
          <mxGeometry relative="1" as="geometry">
            <mxPoint x="-820" y="130" as="sourcePoint" />
          </mxGeometry>
        </mxCell>
        <mxCell id="dhznvwG4GQQHrfqgh1_B-69" value="return" style="html=1;verticalAlign=bottom;endArrow=open;dashed=1;endSize=8;exitX=-0.114;exitY=0.994;rounded=0;exitDx=0;exitDy=0;exitPerimeter=0;entryX=1.02;entryY=1.003;entryDx=0;entryDy=0;entryPerimeter=0;" edge="1" parent="1" source="dhznvwG4GQQHrfqgh1_B-63" target="dhznvwG4GQQHrfqgh1_B-66">
          <mxGeometry relative="1" as="geometry">
            <mxPoint x="-960" y="210" as="targetPoint" />
            <Array as="points" />
          </mxGeometry>
        </mxCell>
        <mxCell id="dhznvwG4GQQHrfqgh1_B-70" value="subscribe" style="html=1;verticalAlign=bottom;endArrow=block;entryX=0;entryY=0;rounded=0;exitX=1.022;exitY=0;exitDx=0;exitDy=0;exitPerimeter=0;" edge="1" parent="1" source="dhznvwG4GQQHrfqgh1_B-67" target="dhznvwG4GQQHrfqgh1_B-64">
          <mxGeometry relative="1" as="geometry">
            <mxPoint x="-960" y="186" as="sourcePoint" />
          </mxGeometry>
        </mxCell>
        <mxCell id="dhznvwG4GQQHrfqgh1_B-71" value="return" style="html=1;verticalAlign=bottom;endArrow=open;dashed=1;endSize=8;exitX=-0.114;exitY=0.994;rounded=0;exitDx=0;exitDy=0;exitPerimeter=0;entryX=1.02;entryY=1.003;entryDx=0;entryDy=0;entryPerimeter=0;" edge="1" parent="1" source="dhznvwG4GQQHrfqgh1_B-64" target="dhznvwG4GQQHrfqgh1_B-67">
          <mxGeometry relative="1" as="geometry">
            <mxPoint x="-950" y="266" as="targetPoint" />
            <Array as="points" />
          </mxGeometry>
        </mxCell>
        <mxCell id="dhznvwG4GQQHrfqgh1_B-72" value="" style="html=1;points=[];perimeter=orthogonalPerimeter;" vertex="1" parent="1">
          <mxGeometry x="-815" y="290" width="10" height="40" as="geometry" />
        </mxCell>
        <mxCell id="dhznvwG4GQQHrfqgh1_B-73" value="" style="html=1;points=[];perimeter=orthogonalPerimeter;" vertex="1" parent="1">
          <mxGeometry x="-975" y="290" width="10" height="160" as="geometry" />
        </mxCell>
        <mxCell id="dhznvwG4GQQHrfqgh1_B-74" value="push" style="html=1;verticalAlign=bottom;endArrow=block;rounded=0;entryX=1.027;entryY=0.002;entryDx=0;entryDy=0;entryPerimeter=0;exitX=-0.021;exitY=-0.002;exitDx=0;exitDy=0;exitPerimeter=0;" edge="1" parent="1" source="dhznvwG4GQQHrfqgh1_B-72" target="dhznvwG4GQQHrfqgh1_B-73">
          <mxGeometry relative="1" as="geometry">
            <mxPoint x="-760" y="290" as="sourcePoint" />
            <mxPoint x="-960" y="290" as="targetPoint" />
            <Array as="points">
              <mxPoint x="-950" y="290" />
            </Array>
          </mxGeometry>
        </mxCell>
        <mxCell id="dhznvwG4GQQHrfqgh1_B-75" value="OnRtnDepthMarketData" style="html=1;verticalAlign=bottom;endArrow=block;rounded=0;entryX=0.011;entryY=0.002;entryDx=0;entryDy=0;entryPerimeter=0;exitX=1.018;exitY=0.501;exitDx=0;exitDy=0;exitPerimeter=0;" edge="1" parent="1" source="dhznvwG4GQQHrfqgh1_B-73" target="dhznvwG4GQQHrfqgh1_B-61">
          <mxGeometry relative="1" as="geometry">
            <mxPoint x="-940" y="370" as="sourcePoint" />
            <mxPoint x="-474.75" y="690" as="targetPoint" />
          </mxGeometry>
        </mxCell>
        <mxCell id="dhznvwG4GQQHrfqgh1_B-76" value=":&lt;span style=&quot;&quot;&gt;CtpGateway&lt;/span&gt;" style="shape=umlLifeline;perimeter=lifelinePerimeter;whiteSpace=wrap;html=1;container=1;collapsible=0;recursiveResize=0;outlineConnect=0;" vertex="1" parent="1">
          <mxGeometry x="-540" y="50" width="100" height="520" as="geometry" />
        </mxCell>
        <mxCell id="dhznvwG4GQQHrfqgh1_B-77" value="" style="html=1;points=[];perimeter=orthogonalPerimeter;" vertex="1" parent="dhznvwG4GQQHrfqgh1_B-76">
          <mxGeometry x="45" y="340" width="10" height="20" as="geometry" />
        </mxCell>
        <mxCell id="dhznvwG4GQQHrfqgh1_B-78" value="on_tick" style="html=1;verticalAlign=bottom;endArrow=block;rounded=0;exitX=1.035;exitY=1.023;exitDx=0;exitDy=0;exitPerimeter=0;entryX=-0.016;entryY=0.003;entryDx=0;entryDy=0;entryPerimeter=0;" edge="1" parent="1" source="dhznvwG4GQQHrfqgh1_B-61" target="dhznvwG4GQQHrfqgh1_B-77">
          <mxGeometry relative="1" as="geometry">
            <mxPoint x="-509.99999999999994" y="440.0000000000001" as="sourcePoint" />
            <mxPoint x="-540" y="390" as="targetPoint" />
          </mxGeometry>
        </mxCell>
        <mxCell id="dhznvwG4GQQHrfqgh1_B-79" value=":EventEngine" style="shape=umlLifeline;perimeter=lifelinePerimeter;whiteSpace=wrap;html=1;container=1;collapsible=0;recursiveResize=0;outlineConnect=0;" vertex="1" parent="1">
          <mxGeometry x="-380" y="50" width="100" height="630" as="geometry" />
        </mxCell>
        <mxCell id="dhznvwG4GQQHrfqgh1_B-80" value="" style="html=1;points=[];perimeter=orthogonalPerimeter;" vertex="1" parent="dhznvwG4GQQHrfqgh1_B-79">
          <mxGeometry x="45" y="360" width="10" height="40" as="geometry" />
        </mxCell>
        <mxCell id="dhznvwG4GQQHrfqgh1_B-81" value="on_event" style="html=1;verticalAlign=bottom;endArrow=block;rounded=0;exitX=1.035;exitY=1.023;exitDx=0;exitDy=0;exitPerimeter=0;entryX=-0.016;entryY=0.003;entryDx=0;entryDy=0;entryPerimeter=0;" edge="1" parent="dhznvwG4GQQHrfqgh1_B-79">
          <mxGeometry relative="1" as="geometry">
            <mxPoint x="-104.4900000000001" y="360.40000000000003" as="sourcePoint" />
            <mxPoint x="45.00000000000014" y="359.99999999999994" as="targetPoint" />
          </mxGeometry>
        </mxCell>
        <mxCell id="dhznvwG4GQQHrfqgh1_B-82" value="" style="html=1;points=[];perimeter=orthogonalPerimeter;" vertex="1" parent="dhznvwG4GQQHrfqgh1_B-79">
          <mxGeometry x="45" y="420" width="10" height="40" as="geometry" />
        </mxCell>
        <mxCell id="dhznvwG4GQQHrfqgh1_B-83" value="put event to queue" style="edgeStyle=orthogonalEdgeStyle;html=1;align=left;spacingLeft=2;endArrow=block;rounded=0;entryX=1;entryY=0;" edge="1" parent="dhznvwG4GQQHrfqgh1_B-79" target="dhznvwG4GQQHrfqgh1_B-82">
          <mxGeometry relative="1" as="geometry">
            <mxPoint x="50" y="400" as="sourcePoint" />
            <Array as="points">
              <mxPoint x="80" y="400" />
            </Array>
          </mxGeometry>
        </mxCell>
        <mxCell id="dhznvwG4GQQHrfqgh1_B-84" value="" style="html=1;points=[];perimeter=orthogonalPerimeter;" vertex="1" parent="dhznvwG4GQQHrfqgh1_B-79">
          <mxGeometry x="45" y="80" width="10" height="40" as="geometry" />
        </mxCell>
        <mxCell id="dhznvwG4GQQHrfqgh1_B-85" value="" style="html=1;points=[];perimeter=orthogonalPerimeter;" vertex="1" parent="dhznvwG4GQQHrfqgh1_B-79">
          <mxGeometry x="45" y="160" width="10" height="40" as="geometry" />
        </mxCell>
        <mxCell id="dhznvwG4GQQHrfqgh1_B-86" value="get event from queue" style="edgeStyle=orthogonalEdgeStyle;html=1;align=left;spacingLeft=2;endArrow=block;rounded=0;entryX=1.021;entryY=1;entryDx=0;entryDy=0;entryPerimeter=0;" edge="1" parent="dhznvwG4GQQHrfqgh1_B-79" target="dhznvwG4GQQHrfqgh1_B-85">
          <mxGeometry relative="1" as="geometry">
            <mxPoint x="55" y="160" as="sourcePoint" />
            <Array as="points">
              <mxPoint x="85" y="160" />
              <mxPoint x="85" y="200" />
            </Array>
            <mxPoint x="60" y="180" as="targetPoint" />
          </mxGeometry>
        </mxCell>
        <mxCell id="dhznvwG4GQQHrfqgh1_B-87" value="" style="html=1;points=[];perimeter=orthogonalPerimeter;" vertex="1" parent="dhznvwG4GQQHrfqgh1_B-79">
          <mxGeometry x="45" y="478" width="10" height="60" as="geometry" />
        </mxCell>
        <mxCell id="dhznvwG4GQQHrfqgh1_B-88" value="行情数据推送&lt;br&gt;过滤数据" style="text;html=1;strokeColor=none;fillColor=none;align=center;verticalAlign=middle;whiteSpace=wrap;rounded=0;" vertex="1" parent="1">
          <mxGeometry x="-850" y="380" width="80" height="30" as="geometry" />
        </mxCell>
        <mxCell id="dhznvwG4GQQHrfqgh1_B-89" value="合成tickData" style="text;html=1;strokeColor=none;fillColor=none;align=center;verticalAlign=middle;whiteSpace=wrap;rounded=0;" vertex="1" parent="1">
          <mxGeometry x="-610" y="400" width="80" height="30" as="geometry" />
        </mxCell>
        <mxCell id="dhznvwG4GQQHrfqgh1_B-90" value="合成event" style="text;html=1;strokeColor=none;fillColor=none;align=center;verticalAlign=middle;whiteSpace=wrap;rounded=0;" vertex="1" parent="1">
          <mxGeometry x="-450" y="410" width="80" height="30" as="geometry" />
        </mxCell>
        <mxCell id="dhznvwG4GQQHrfqgh1_B-91" value=":CtaEngine" style="shape=umlLifeline;perimeter=lifelinePerimeter;whiteSpace=wrap;html=1;container=1;collapsible=0;recursiveResize=0;outlineConnect=0;" vertex="1" parent="1">
          <mxGeometry x="-220" y="50" width="100" height="650" as="geometry" />
        </mxCell>
        <mxCell id="dhznvwG4GQQHrfqgh1_B-92" value="" style="html=1;points=[];perimeter=orthogonalPerimeter;" vertex="1" parent="dhznvwG4GQQHrfqgh1_B-91">
          <mxGeometry x="45" y="80" width="10" height="40" as="geometry" />
        </mxCell>
        <mxCell id="dhznvwG4GQQHrfqgh1_B-93" value="process_tick_event" style="html=1;verticalAlign=bottom;endArrow=block;rounded=0;exitX=1.035;exitY=1.023;exitDx=0;exitDy=0;exitPerimeter=0;entryX=-0.016;entryY=0.003;entryDx=0;entryDy=0;entryPerimeter=0;" edge="1" parent="dhznvwG4GQQHrfqgh1_B-91">
          <mxGeometry relative="1" as="geometry">
            <mxPoint x="-104.49000000000001" y="478.4000000000002" as="sourcePoint" />
            <mxPoint x="45.00000000000023" y="478" as="targetPoint" />
          </mxGeometry>
        </mxCell>
        <mxCell id="dhznvwG4GQQHrfqgh1_B-94" value="" style="html=1;points=[];perimeter=orthogonalPerimeter;" vertex="1" parent="dhznvwG4GQQHrfqgh1_B-91">
          <mxGeometry x="45" y="478" width="10" height="60" as="geometry" />
        </mxCell>
        <mxCell id="dhznvwG4GQQHrfqgh1_B-95" value="register" style="html=1;verticalAlign=bottom;endArrow=block;rounded=0;exitX=-0.005;exitY=-0.001;exitDx=0;exitDy=0;exitPerimeter=0;entryX=1.017;entryY=0.006;entryDx=0;entryDy=0;entryPerimeter=0;" edge="1" parent="1" source="dhznvwG4GQQHrfqgh1_B-92" target="dhznvwG4GQQHrfqgh1_B-84">
          <mxGeometry relative="1" as="geometry">
            <mxPoint x="-171.49000000000024" y="133.4000000000001" as="sourcePoint" />
            <mxPoint x="-347.92857142857156" y="133.4000000000001" as="targetPoint" />
          </mxGeometry>
        </mxCell>
        <mxCell id="dhznvwG4GQQHrfqgh1_B-96" value="注册函数&lt;br&gt;process_tick_event" style="text;html=1;strokeColor=none;fillColor=none;align=center;verticalAlign=middle;whiteSpace=wrap;rounded=0;" vertex="1" parent="1">
          <mxGeometry x="-290" y="130" width="90" height="30" as="geometry" />
        </mxCell>
        <mxCell id="dhznvwG4GQQHrfqgh1_B-97" value=":stragegy" style="shape=umlLifeline;perimeter=lifelinePerimeter;whiteSpace=wrap;html=1;container=1;collapsible=0;recursiveResize=0;outlineConnect=0;" vertex="1" parent="1">
          <mxGeometry x="-60" y="50" width="100" height="640" as="geometry" />
        </mxCell>
        <mxCell id="dhznvwG4GQQHrfqgh1_B-98" value="" style="html=1;points=[];perimeter=orthogonalPerimeter;" vertex="1" parent="dhznvwG4GQQHrfqgh1_B-97">
          <mxGeometry x="45" y="490" width="10" height="70" as="geometry" />
        </mxCell>
        <mxCell id="dhznvwG4GQQHrfqgh1_B-99" value="on_tick" style="edgeStyle=orthogonalEdgeStyle;html=1;align=left;spacingLeft=2;endArrow=block;rounded=0;exitX=0.992;exitY=0;exitDx=0;exitDy=0;exitPerimeter=0;" edge="1" parent="dhznvwG4GQQHrfqgh1_B-97" source="dhznvwG4GQQHrfqgh1_B-98">
          <mxGeometry relative="1" as="geometry">
            <mxPoint x="60" y="490" as="sourcePoint" />
            <Array as="points">
              <mxPoint x="90" y="490" />
              <mxPoint x="90" y="520" />
              <mxPoint x="55" y="520" />
            </Array>
            <mxPoint x="55" y="520" as="targetPoint" />
          </mxGeometry>
        </mxCell>
        <mxCell id="dhznvwG4GQQHrfqgh1_B-100" value="call_strategy_func" style="html=1;verticalAlign=bottom;endArrow=block;rounded=0;exitX=1.035;exitY=1.023;exitDx=0;exitDy=0;exitPerimeter=0;entryX=-0.016;entryY=0.003;entryDx=0;entryDy=0;entryPerimeter=0;" edge="1" parent="1">
          <mxGeometry relative="1" as="geometry">
            <mxPoint x="-163.9999999999991" y="540.4000000000001" as="sourcePoint" />
            <mxPoint x="-14.510000000000218" y="540" as="targetPoint" />
          </mxGeometry>
        </mxCell>
        <mxCell id="dhznvwG4GQQHrfqgh1_B-101" value=":BarGenerator" style="shape=umlLifeline;perimeter=lifelinePerimeter;whiteSpace=wrap;html=1;container=1;collapsible=0;recursiveResize=0;outlineConnect=0;" vertex="1" parent="1">
          <mxGeometry x="100" y="50" width="100" height="640" as="geometry" />
        </mxCell>
        <mxCell id="dhznvwG4GQQHrfqgh1_B-102" value="" style="html=1;points=[];perimeter=orthogonalPerimeter;" vertex="1" parent="dhznvwG4GQQHrfqgh1_B-101">
          <mxGeometry x="45" y="530" width="10" height="30" as="geometry" />
        </mxCell>
        <mxCell id="dhznvwG4GQQHrfqgh1_B-103" value="on_bar" style="edgeStyle=orthogonalEdgeStyle;html=1;align=left;spacingLeft=2;endArrow=block;rounded=0;entryX=0.992;entryY=1.001;entryDx=0;entryDy=0;entryPerimeter=0;exitX=0.992;exitY=0;exitDx=0;exitDy=0;exitPerimeter=0;" edge="1" parent="dhznvwG4GQQHrfqgh1_B-101" source="dhznvwG4GQQHrfqgh1_B-102" target="dhznvwG4GQQHrfqgh1_B-102">
          <mxGeometry relative="1" as="geometry">
            <mxPoint x="60" y="491" as="sourcePoint" />
            <Array as="points">
              <mxPoint x="90" y="530" />
              <mxPoint x="90" y="560" />
            </Array>
            <mxPoint x="60.210000000000036" y="531" as="targetPoint" />
          </mxGeometry>
        </mxCell>
        <mxCell id="dhznvwG4GQQHrfqgh1_B-104" value="update_tick" style="html=1;verticalAlign=bottom;endArrow=block;rounded=0;exitX=1.075;exitY=0.579;exitDx=0;exitDy=0;exitPerimeter=0;entryX=0.5;entryY=0;entryDx=0;entryDy=0;entryPerimeter=0;" edge="1" parent="1" source="dhznvwG4GQQHrfqgh1_B-98" target="dhznvwG4GQQHrfqgh1_B-102">
          <mxGeometry relative="1" as="geometry">
            <mxPoint x="6.821210263296962e-13" y="580.4000000000001" as="sourcePoint" />
            <mxPoint x="140" y="580" as="targetPoint" />
          </mxGeometry>
        </mxCell>
      </root>
    </mxGraphModel>
  </diagram>
</mxfile>
